<?xml version="1.0" encoding="utf-8"?>
<!-- Generator: Adobe Illustrator 18.1.1, SVG Export Plug-In . SVG Version: 6.00 Build 0)  -->
<!DOCTYPE svg PUBLIC "-//W3C//DTD SVG 1.1//EN" "http://www.w3.org/Graphics/SVG/1.1/DTD/svg11.dtd">
<svg version="1.1" id="Layer_1" xmlns="http://www.w3.org/2000/svg" xmlns:xlink="http://www.w3.org/1999/xlink" x="0px" y="0px"
	 viewBox="0 0 200 200" enable-background="new 0 0 200 200" xml:space="preserve">
<g>
	<g>
		<circle fill="#FFFFFF" cx="71.1" cy="16.7" r="16.4"/>
	</g>
</g>
<g>
	<g>
		<path fill="#FFFFFF" d="M97.1,40c-1.4-1.1-3.1-1.6-4.8-1.6h-8.1c-0.9,2.4-8.7,22.8-9.8,25.7l2.3-10.9c0.2-0.8,0-1.6-0.3-2.3
			l-3.2-5.8l2.8-5.1c0.4-0.8-0.1-1.7-1-1.7h-7.8c-0.9,0-1.4,0.9-1,1.7l2.8,5.1l-3.2,5.8c-0.4,0.7-0.5,1.5-0.3,2.2l2,10.9
			c-1-2.6-8.6-22.9-9.7-25.7H50c-6.3,0-12,3.4-14.9,8.9l-5.5,10.2L18.8,42.3c-2.5-3.6-7.5-4.4-11.1-1.9c-3.6,2.5-4.4,7.5-1.9,11.1
			L24,77.1c3.4,4.8,10.7,4.4,13.5-0.8l10.1-18c0.3-0.5,0.8-0.7,1.4-0.6c0.5,0.1,0.9,0.6,0.9,1.2l0,131.6c0,5.3,4.3,9.5,9.5,9.5
			s9.5-4.3,9.5-9.5v-76.1H73v76.1c0,5.3,4.3,9.5,9.5,9.5c5.3,0,9.5-4.3,9.5-9.5c0-123.7-0.2-57.1-0.2-132c0-0.5,0.3-0.9,0.7-1.1
			c0.4-0.2,0.9-0.2,1.3,0.1l8.1,6.2l0-6.9c0-4,0.9-7.7,2.5-11.1L97.1,40z"/>
	</g>
</g>
<g>
	<g>
		<path fill="#FFFFFF" d="M149.7,0c-9.1,0-16.4,7.4-16.4,16.4c0,9.1,7.4,16.4,16.4,16.4c9,0,16.4-7.3,16.4-16.4
			C166.2,7.4,158.8,0,149.7,0z"/>
	</g>
</g>
<g>
	<g>
		<path fill="#FFFFFF" d="M195.4,78.8c-0.2-0.7-4.1-18.3-6-24.4C187.7,49,186,45,183,42.1c-3.7-3.5-8.2-4-12-4h-8.1
			c-0.9,2.4-8.7,22.8-9.8,25.7l2.3-10.9c0.2-0.8,0-1.6-0.3-2.3l-3.2-5.8l2.8-5.1c0.4-0.8-0.1-1.7-1-1.7h-7.8c-0.9,0-1.4,0.9-1,1.7
			l2.8,5.1l-3.2,5.8c-0.4,0.7-0.5,1.5-0.3,2.2l2,10.9c-1-2.6-8.6-22.9-9.7-25.7h-8.1c-10.3,0-18.7,8.4-18.8,18.7l-0.3,58.3
			c0,2.7,1.3,5.1,3.4,6.5c0,2.9,0,5.3,0,11.8h-0.2c-2,0-3.6,1.6-3.6,3.6V167c0,2,1.6,3.6,3.6,3.6h8.7c2,0,3.6-1.6,3.6-3.6v-29.9
			c0-1.9-1.4-3.4-3.2-3.6c0-6.5,0-5.1,0-11.7c2.2-1.4,3.6-3.8,3.6-6.6l0.3-58.3c0-0.8,0.7-1.5,1.5-1.5c0.8,0,1.5,0.7,1.5,1.5l0,56.9
			c-0.8,13.8-0.7,11.3-0.9,15.5c2.3,1.9,3.7,4.7,3.7,7.9v29.9c0,4.3-2.7,8-6.5,9.5l-0.8,13.2c-0.3,5.4,4,10.1,9.5,10.1
			c5,0,9.2-3.9,9.5-9c4.7-80,4.4-76,4.4-76.9h4.1c0,0.5-0.2-3.1,4.4,76.9c0.3,5.2,4.8,9.3,10.1,9c5.2-0.3,9.3-4.8,9-10.1
			c0-0.7-4.1-71.2-4.4-76.5l23.1-27.8C195.4,83.7,196,81.2,195.4,78.8z M170.6,88.9V55c0-0.3,0.1-0.5,0.3-0.7
			c0.2-0.2,0.4-0.3,0.7-0.3c0.4,0,0.8,0.3,0.9,0.7l6.6,23.8L170.6,88.9z"/>
	</g>
</g>
</svg>
