<?xml version="1.0" encoding="utf-8"?>
<!-- Generator: Adobe Illustrator 18.1.1, SVG Export Plug-In . SVG Version: 6.00 Build 0)  -->
<!DOCTYPE svg PUBLIC "-//W3C//DTD SVG 1.1//EN" "http://www.w3.org/Graphics/SVG/1.1/DTD/svg11.dtd">
<svg version="1.1" id="Capa_1" xmlns="http://www.w3.org/2000/svg" xmlns:xlink="http://www.w3.org/1999/xlink" x="0px" y="0px"
	 viewBox="0 0 1080 1080" enable-background="new 0 0 1080 1080" xml:space="preserve">
<g>
	<g>
		<path fill="#FFFFFF" d="M757.5,287H615.5V145c0-1.1-0.9-2.1-2-2.1c-80.5,0-146,65.5-146,146c0,13,2.3,25.3,5.5,37.3l83.4-64.9
			c6.3-5,16.5-3.8,21.5,2.6c5.3,6.8,4.1,16.5-2.7,21.7l-90.7,70.7c24.4,46.6,72.8,78.7,129,78.7c80.6,0,146-65.4,146-146
			C759.5,287.9,758.6,287,757.5,287z"/>
		<path fill="#FFFFFF" d="M760.2,173.3c-1.2-1.4-3-2.3-5-2.3c-2,0-3.8,0.7-5.1,2.1l-82.4,86.9c-1.9,2-2.4,4.8-1.3,7.3
			c1.1,2.5,3.5,4.1,6.2,4.1h120.1c0,0,0,0,0,0c3.7,0,6.8-3,6.8-6.8c0-0.5-0.1-1-0.2-1.5C795.7,229.8,782.2,198.8,760.2,173.3z
			 M688.4,257.8l66.3-70c16,20.5,26.4,44.4,30.4,70H688.4z"/>
		<path fill="#FFFFFF" d="M640.4,247.8c0.8,0.3,1.7,0.5,2.5,0.5c1.8,0,3.6-0.7,4.9-2.1l79.1-83.4c1.3-1.4,2-3.3,1.8-5.2
			c-0.2-1.9-1.1-3.7-2.7-4.8c-24.2-18.2-52.7-29.5-82.4-32.7c-1.9-0.2-3.8,0.4-5.2,1.7s-2.2,3.1-2.2,5v114.8
			C636.1,244.3,637.8,246.8,640.4,247.8z M649.6,134.4c22.1,3.5,43.3,11.9,62.1,24.6l-62.1,65.5V134.4z"/>
		<path fill="#FFFFFF" d="M233.4,149.5c-38.4,0-69.6,31.2-69.6,69.6c0,38.4,31.2,69.6,69.6,69.6c38.5,0,69.6-31.2,69.6-69.6
			C303,180.6,271.9,149.5,233.4,149.5z"/>
		<path fill="#FFFFFF" d="M1040.2,874.5l-49-45.1c-8.1,22.8-24.3,56.7-56.3,92.6c-27.2,30.6-61.5,57.5-101.9,80.3l51.3,47.1
			c47.5,43.8,121,40,164-8.2C1091.3,993,1087.6,918.2,1040.2,874.5z"/>
		<path fill="#FFFFFF" d="M914.4,907.2c26.3-29.5,45-62.3,55.3-97.3l-42.3-39c-43-39.6-87.7-21.5-131.9,16.4c0,0-0.9,0.7-2.3,1.9
			c0,0,0,0,0,0c-18.6-14-39.8-20.3-62.3-25.1c-19.5-4.1-45.9-8.1-58.5-25.4c-9.9-13.7,0.1-32.7,6.6-45.6c2.4-4.7,4.9-9.4,7.5-14
			l146.5,0c37.5,0,59.3-27.2,59.3-60.8V60.8C892.5,27.2,866,0,833.1,0h-772C28.3,0,1.7,27.2,1.7,60.8v557.5
			c0,33.6,26.6,60.8,59.5,60.8h296.2c0,0,12.8,121.6-89.8,121.6v60.9h89.8h179.4h89.9v-60.9c-106.5,0-89.9-121.6-89.9-121.6l127.1,0
			c-11.3,21-20.4,42.5-10.8,65.3c8.8,20.8,36.1,30,56,35c25.1,6.4,49.3,9.5,70.9,24.4c-3.9,5-6.7,9.2-6.7,9.2
			c-31.1,48.1-50.5,87.8-8.6,126.4l48.9,45.1C838,971.9,879.1,946.9,914.4,907.2z M153,534.7h-18.5V377.6h18.6L153,534.7z
			 M451.1,641.3c-19.9,0-36.1-16.5-36.1-36.7c0-20.2,16.2-36.6,36.1-36.6c20,0,36.1,16.4,36.1,36.6
			C487.2,624.8,471,641.3,451.1,641.3z M317.5,534.7l0-157.8h17.9v49.4c0,0,0,0.2,0,0.2c0,37.5,29.7,32,39.8,24.8
			c8.4-6.1,47.4-32.4,47.4-32.4l25-16.9c0,0,17.9-12.3,18-12.3c19.7-14.4,4.1-34.7,4.1-34.7l99.6-77.5c2.2-1.8,2.6-5,0.9-7.2
			c-1.7-2.2-5-2.6-7.2-0.9l-99.9,77.7l0,0c-4.6-3.5-7.5-4.9-12.9-5.1c-7.6-0.3-15.6,2.3-23.7,7.9l-3.7,2.7L390.1,375v-9.5
			c-1.4-73.7-88.6-71.4-88.6-71.4h-35.7l-30.1,50.3l-30.2-50.3H171c-87.1,0-87.8,62.8-87.8,86.4h0v154.1H65.3v-470h763.6v470
			L317.5,534.7L317.5,534.7z M893.1,893.9c-3.5,4-8.5,6-13.5,5.8c-3.8-0.1-7.6-1.5-10.7-4.3l-71-62.5c-7.1-6.3-7.8-17.1-1.5-24.2
			c6.2-7.1,17-7.7,24.2-1.5l71,62.5C898.7,876,899.4,886.8,893.1,893.9z"/>
	</g>
</g>
</svg>
