<?xml version="1.0" encoding="utf-8"?>
<!-- Generator: Adobe Illustrator 18.1.1, SVG Export Plug-In . SVG Version: 6.00 Build 0)  -->
<!DOCTYPE svg PUBLIC "-//W3C//DTD SVG 1.1//EN" "http://www.w3.org/Graphics/SVG/1.1/DTD/svg11.dtd">
<svg version="1.1" id="Capa_5" xmlns="http://www.w3.org/2000/svg" xmlns:xlink="http://www.w3.org/1999/xlink" x="0px" y="0px"
	 viewBox="0 0 1500 1500" enable-background="new 0 0 1500 1500" xml:space="preserve">
<g>
	<linearGradient id="SVGID_1_" gradientUnits="userSpaceOnUse" x1="847.1051" y1="524.0621" x2="998.2007" y2="524.0621">
		<stop  offset="0" style="stop-color:#009245"/>
		<stop  offset="1" style="stop-color:#006837"/>
	</linearGradient>
	<polygon fill="url(#SVGID_1_)" points="847.1,220.1 998.2,220.1 998.2,727.8 920.3,828 847.1,716.4 	"/>
	<linearGradient id="SVGID_2_" gradientUnits="userSpaceOnUse" x1="662.3036" y1="565.8697" x2="814.4878" y2="565.8697">
		<stop  offset="0" style="stop-color:#009245"/>
		<stop  offset="1" style="stop-color:#006837"/>
	</linearGradient>
	<polygon fill="url(#SVGID_2_)" points="663.3,367.7 814,367.7 814.5,665.4 768.5,604.6 662.3,764 	"/>
	<linearGradient id="SVGID_3_" gradientUnits="userSpaceOnUse" x1="490.2871" y1="693.0645" x2="634.409" y2="693.0645">
		<stop  offset="0" style="stop-color:#009245"/>
		<stop  offset="1" style="stop-color:#006837"/>
	</linearGradient>
	<polygon fill="url(#SVGID_3_)" points="634.4,544.4 634.4,799.9 612.4,841.7 490.3,711.4 490.3,544.4 	"/>
	<path fill="none" d="M1231.8,975.7c9.6-0.8,16.6-3.3,20-14.1C1243.1,964.6,1234,964,1231.8,975.7z"/>
	<path fill="none" d="M126.1,800.6c-3.8,0.1-7,3.3-7.1,7.1c-0.1,4,3.3,7.5,7.3,7.5c4,0,7.5-3.4,7.4-7.4
		C133.6,803.7,130.2,800.5,126.1,800.6z"/>
	<path d="M1446,916.7c-31.9,0.1-49.6-15.4-53-46.7c-1-9.2-4.2-14.8-14-17.3c-7.4-1.9-14.2-6.7-17.7-15.7c3.4,0.8,5.4,1.3,9.4,2.2
		c-5.8-10-10.3-18-15.2-25.8c-32.1-51.1-77.7-89.3-122.8-127.8c-2.3-2-4.9-3.7-7.6-5.2c-13.6-8.1-27.9-13.4-43.3-14.7L993.8,921.2
		c29.8,7.6,59.6,6.7,89.8,3.7c3.2-7.9,5.7-15.1,9.1-22c3-6.1,7.1-11.8,10.7-17.6c0.3,5.4-1.7,9.5-3.4,13.6
		c-10.8,25.7-19,52-17.6,80.3c0.8,16.2,2.3,32.4,3.5,49.8c14.5,8.4,30.6,8.3,47.4,4c-1.6-10.9-1.4-11-11.1-21.3
		c-10.5-11.3-14.5-23.9-11.4-39.4c3.5-17.6,12.4-31,26.6-41.5c17.5-13,34.7-26.4,52.2-39.9c-11.7,20.8-33.8,30.9-50.8,47
		c6.1,1,12.1,0.5,16.5,3c8.8,5,16.8,11.5,25.1,17.5c17.1,12.4,24.5,29.6,24.4,50.4c0,4.5-0.3,9.1-0.4,13.1
		c13.5,9.3,34.1,15.6,51.3,15.9c2.6-9.5-1.8-17-7.4-23.7c-9.7-11.6-16.5-24.6-21.7-38.7c-6.2-16.6-12.8-33-19-48.9
		c-8.3,2.4-16.8,4.8-25.3,7.2c3.3-4.5,7.8-5.7,11.6-8.1c7.3-4.6,15.3-8.8,20.9-15c6.5-7.2,12.7-13.2,23.3-11.7
		c1.9-3.9,4.4-6.9,4.9-10.2c1-7,1.2-14.2,1.3-21.2c0.2-10.3-0.1-20.7,8.4-27.1c-0.9,10-2.9,20-2.3,29.7c0.7,10.6-0.6,20.1-5.6,29.5
		c-5.1,9.4-9.7,19.2-13.7,29.1c-3.4,8.3-5.1,17.5,2.4,24.3c4.1,3.7,5.7,6.9,6.9,12.2c3.3,14.6,16.4,18.3,27.8,8.5
		c3.5-3,6.9-6.2,9.6-9.9c11.1-15.1,26.3-23.8,43.9-29.3c18-5.6,34.1-13.9,40.5-33.9c40.6,37.4,74.7,42.4,107.6,14.6
		C1460.2,915.9,1453.1,916.6,1446,916.7z M1272.6,935.8c2.2-11.7,11.2-11.1,20-14.1C1289.1,932.4,1282.2,934.9,1272.6,935.8z"/>
	<linearGradient id="SVGID_4_" gradientUnits="userSpaceOnUse" x1="30.2223" y1="851.7118" x2="440.8705" y2="851.7118">
		<stop  offset="0" style="stop-color:#009245"/>
		<stop  offset="1" style="stop-color:#006837"/>
	</linearGradient>
	<path fill="url(#SVGID_4_)" d="M427,736c-14.2,1.8-28.4,4.4-42.6,6.1c-10,1.2-20.2,1.9-29.9-2.2c-4.8-2-9.3-4.8-13.9-7.2
		c-6-3-11.9-6.7-18.2-8.8c-14.2-4.6-28.4-2.4-42.4,1.4c-9.3,2.5-17.4,7.5-25.7,12.2c-10.7,6-22,10.5-34.4,11.9
		c-21.6,2.5-43.3,3.1-65.1,3.6c-3,0.1-4.9-1-6.9-3.2c-4-4.2-8.1-8.4-12.8-11.8c-4.4-3.2-7-2.3-9.2,2.5c-3.5,7.8-6.7,15.7-9.7,23.6
		c-1.2,3.2-2.9,5-6.1,6.2c-7.9,3.1-15.7,6.5-23.5,9.9c-5.3,2.3-9.6,5.8-11.3,11.7c-0.7,2.4-2.2,4.5-3,6.9c-1.1,3-2.8,4.7-6.1,5.5
		c-4.1,0.9-8.2,2.3-12.2,3.9c-6.4,2.7-12.9,5.4-18.9,8.8c-5.1,2.8-5.8,5.8-3.7,11.3c1.1,2.9,2.5,5.7,4.4,8.2
		c4.4,5.9,9.3,11.4,13.8,17.3c2.9,3.8,6.6,5.8,11.2,6.4c19.4,2.7,38.8,5.3,58.2,8.1c10.2,1.4,20.3,2.8,29.2,8.8
		c2.8,1.9,6.3,2.9,9.6,4c14,4.8,28.3,8.2,42.9,10.4c12.4,1.9,21.5,8.2,28.4,18.3c6.7,9.9,11.4,20.7,14.9,32
		c4.2,13.3,7.4,26.7,10.1,40.3l186.8-247.6C436.2,734.9,431.6,735.4,427,736z M98.4,807c-4,0-7.4-3.5-7.3-7.5c0.1-3.8,3.3-7,7.1-7.1
		c4.1-0.1,7.5,3.1,7.6,7.2C105.8,803.6,102.4,807,98.4,807z"/>
	<polygon points="1168,473.8 1207.1,507 1007.8,751.8 920.2,859.4 885.7,808.7 769.4,638.1 641.8,834.2 613.2,878.3 488.9,741.3 
		478.5,729.8 468.8,742.6 281.9,990.2 218.4,1085.2 287.5,1023.4 478.5,834.1 618.5,988.9 632.6,967.9 694.9,874.7 699.5,867.7 
		774.8,755.1 824.3,837.8 895.5,956.7 895.8,957.2 913.1,986 914.5,988.4 918.3,983.3 924.8,974.4 926.4,972.2 1114.2,716.6 
		1246.2,537 1278.5,571.7 1302.7,420 	"/>
	<g>
		<path fill="#FFFFFF" d="M931.3,342.8l3.1,0.3c14.4,1.3,25.3,4.5,32.9,9.7c3.9,2.7,7,6.3,9.3,10.9c2.3,4.6,3.4,9.5,3.4,14.6
			c0,7.9-2.3,14.8-6.9,20.7c-4.6,5.9-11.2,10.4-19.9,13.5c-7.1,2.6-14.4,4.1-21.9,4.4v5.6c0,1.8,0.4,3.1,1.2,4.1
			c0.8,0.9,2.2,1.7,4.3,2.2v2.8h-24v-2.8c2.1-0.6,3.5-1.3,4.3-2.2c0.8-0.9,1.2-2.3,1.2-4.1v-5.6c-13.9-1-28.1-5.1-42.4-12.3
			c-1.3-0.6-2.3-0.9-3-0.9c-0.7,0-1.9,0.6-3.5,1.9l-2.5-1.2l12.8-28.9l2.5,1.1c0,0.6,0,1,0,1.2c0,3.1,1.8,5.9,5.4,8.5
			c3.7,2.6,8.5,4.9,14.3,6.8c5.8,2,11.3,3.2,16.4,3.6v-29.4c-8.4-0.8-14.7-1.7-18.9-2.6c-4.2-0.9-8.1-2.3-11.8-4.1
			c-5.3-2.6-9.4-6.5-12.3-11.7c-2.7-4.7-4.1-10.1-4.1-16.1c0-11.1,4.2-20,12.6-26.8c8.4-6.7,19.9-10.3,34.5-10.8v-4.2
			c0-1.7-0.4-3-1.2-4c-0.8-0.9-2.2-1.7-4.3-2.2v-2.8h24v2.8c-2.1,0.6-3.5,1.3-4.3,2.2c-0.8,0.9-1.2,2.2-1.2,4v4.7
			c5.4,0.4,10.9,1.4,16.6,3.1c5.7,1.7,13,4.4,22,8.2c1.5,0.6,2.7,0.9,3.5,0.9c1.2,0,2.6-0.7,4.2-2l2.5,1.3L966,334.8l-2.4-1.4
			c0.1-0.5,0.1-0.9,0.1-1.4c0-2.9-3.7-6.3-11.1-10c-7.4-3.7-14.5-5.8-21.3-6.3V342.8z M918.3,341.3v-26c-4.7,0.3-8.7,1-11.8,2.1
			c-3.5,1.2-6.3,2.9-8.4,5.2c-2.1,2.3-3.1,4.8-3.1,7.5c0,2.1,0.7,3.9,2.2,5.5c1.4,1.6,3.4,2.8,5.9,3.5
			C906.5,340,911.6,340.8,918.3,341.3z M931.3,368.6v28.1c5.7-0.6,10.3-1.8,13.9-3.5c6.6-3.2,9.8-7.6,9.8-13.1
			c0-1.8-0.6-3.6-1.8-5.1c-1.2-1.6-2.7-2.7-4.5-3.3C945.5,370.3,939.7,369.4,931.3,368.6z"/>
	</g>
	<g>
		<path fill="#FFFFFF" d="M744.2,454.8l2.3,0.2c10.8,1,19,3.4,24.7,7.3c2.9,2,5.3,4.8,7,8.2c1.7,3.4,2.6,7.1,2.6,11
			c0,6-1.7,11.2-5.2,15.6c-3.4,4.4-8.4,7.8-15,10.1c-5.4,1.9-10.9,3-16.5,3.3v4.2c0,1.3,0.3,2.4,0.9,3c0.6,0.7,1.7,1.3,3.2,1.7v2.1
			h-18v-2.1c1.6-0.4,2.6-1,3.2-1.7c0.6-0.7,0.9-1.7,0.9-3v-4.2c-10.5-0.8-21.1-3.9-31.9-9.3c-1-0.5-1.7-0.7-2.3-0.7
			c-0.6,0-1.4,0.5-2.7,1.4l-1.9-0.9l9.6-21.7l1.9,0.8c0,0.4,0,0.7,0,0.9c0,2.3,1.4,4.5,4.1,6.4c2.8,1.9,6.4,3.7,10.7,5.1
			c4.3,1.5,8.5,2.4,12.4,2.7v-22.1c-6.3-0.6-11.1-1.3-14.2-1.9c-3.2-0.7-6.1-1.7-8.9-3.1c-4-2-7.1-4.9-9.3-8.8c-2-3.5-3-7.6-3-12.1
			c0-8.3,3.2-15,9.5-20.1c6.3-5.1,15-7.8,25.9-8.1v-3.2c0-1.3-0.3-2.3-0.9-3c-0.6-0.7-1.7-1.3-3.2-1.7V409h18v2.1
			c-1.6,0.4-2.7,1-3.3,1.7c-0.6,0.7-0.9,1.7-0.9,3v3.5c4.1,0.3,8.2,1.1,12.5,2.3c4.3,1.3,9.8,3.3,16.5,6.2c1.1,0.5,2,0.7,2.7,0.7
			c0.9,0,2-0.5,3.2-1.5l1.9,1l-10.6,20.8l-1.8-1c0-0.3,0.1-0.7,0.1-1c0-2.2-2.8-4.7-8.3-7.5c-5.6-2.8-10.9-4.4-16-4.8V454.8z
			 M734.5,453.7v-19.5c-3.5,0.3-6.5,0.8-8.9,1.6c-2.6,0.9-4.7,2.2-6.3,3.9c-1.6,1.7-2.3,3.6-2.3,5.6c0,1.6,0.5,2.9,1.6,4.2
			c1.1,1.2,2.6,2.1,4.4,2.6C725.6,452.7,729.4,453.3,734.5,453.7z M744.2,474.2v21.1c4.3-0.5,7.8-1.4,10.4-2.7
			c4.9-2.4,7.4-5.7,7.4-9.9c0-1.4-0.4-2.7-1.3-3.9c-0.9-1.2-2-2-3.4-2.5C754.9,475.5,750.5,474.8,744.2,474.2z"/>
	</g>
	<g>
		<path fill="#FFFFFF" d="M563.5,603.1l1.8,0.1c8.1,0.7,14.3,2.5,18.6,5.5c2.2,1.5,4,3.6,5.2,6.2c1.3,2.6,1.9,5.3,1.9,8.3
			c0,4.5-1.3,8.4-3.9,11.7c-2.6,3.3-6.3,5.9-11.2,7.6c-4,1.5-8.2,2.3-12.4,2.5v3.2c0,1,0.2,1.8,0.7,2.3c0.5,0.5,1.3,0.9,2.4,1.3v1.6
			h-13.6v-1.6c1.2-0.3,2-0.7,2.4-1.3c0.5-0.5,0.7-1.3,0.7-2.3v-3.2c-7.9-0.6-15.8-2.9-23.9-7c-0.7-0.4-1.3-0.5-1.7-0.5
			c-0.4,0-1.1,0.4-2,1.1l-1.4-0.7l7.2-16.3l1.4,0.6c0,0.3,0,0.6,0,0.7c0,1.8,1,3.3,3.1,4.8c2.1,1.5,4.8,2.7,8.1,3.9
			c3.3,1.1,6.4,1.8,9.3,2v-16.6c-4.7-0.5-8.3-0.9-10.7-1.5c-2.4-0.5-4.6-1.3-6.7-2.3c-3-1.5-5.3-3.7-7-6.6c-1.5-2.7-2.3-5.7-2.3-9.1
			c0-6.3,2.4-11.3,7.1-15.1c4.8-3.8,11.3-5.8,19.5-6.1v-2.4c0-1-0.2-1.7-0.7-2.2c-0.5-0.5-1.3-0.9-2.4-1.3v-1.6h13.6v1.6
			c-1.2,0.3-2,0.7-2.4,1.3c-0.4,0.5-0.7,1.3-0.7,2.2v2.6c3.1,0.2,6.2,0.8,9.4,1.8c3.2,0.9,7.3,2.5,12.4,4.6c0.8,0.4,1.5,0.5,2,0.5
			c0.7,0,1.5-0.4,2.4-1.1l1.4,0.7l-8,15.6l-1.4-0.8c0-0.3,0-0.5,0-0.8c0-1.7-2.1-3.5-6.3-5.6c-4.2-2.1-8.2-3.3-12-3.6V603.1z
			 M556.2,602.3v-14.7c-2.7,0.2-4.9,0.6-6.7,1.2c-2,0.7-3.6,1.6-4.7,2.9c-1.2,1.3-1.8,2.7-1.8,4.2c0,1.2,0.4,2.2,1.2,3.1
			c0.8,0.9,1.9,1.6,3.3,2C549.5,601.5,552.4,602,556.2,602.3z M563.5,617.7v15.8c3.2-0.4,5.8-1,7.8-2c3.7-1.8,5.6-4.3,5.6-7.4
			c0-1-0.3-2-1-2.9c-0.7-0.9-1.5-1.5-2.6-1.9C571.5,618.7,568.3,618.1,563.5,617.7z"/>
	</g>
	<path d="M93.1,1107.7c104.4-27.2,210.8-47.2,318-61c107.2-13.7,215.4-21,323.6-21.5c108.2-0.5,216.5,5.8,323.8,19.3
		c107.3,13.6,213.7,34.1,317.6,63.2c-106.2-18.7-212.8-33.6-319.7-43.2c-106.9-9.7-214.2-14.2-321.5-13.7
		c-107.3,0.5-214.5,6-321.5,15.9C306.3,1076.4,199.7,1090.9,93.1,1107.7z"/>
	<path d="M75.4,1279.9c104.4-27.2,210.8-47.2,318-61c107.2-13.7,215.4-21,323.6-21.5c108.2-0.5,216.5,5.8,323.8,19.3
		c107.3,13.6,213.7,34.1,317.6,63.2c-106.2-18.7-212.8-33.6-319.7-43.2c-106.9-9.7-214.2-14.2-321.5-13.7
		c-107.3,0.5-214.5,6-321.5,15.9C288.6,1248.6,182,1263.1,75.4,1279.9z"/>
	<g>
		<path d="M258.5,1125.9l-26.9,4.3l11.6,72.3l-19.5,3.1l-11.6-72.3l-27.2,4.4l-2.9-17.9l73.5-11.8L258.5,1125.9z"/>
		<path d="M324.2,1119.9c0.7,5.4,1,10.4,0.8,15c0,1.2-0.5,1.8-1.4,1.9c-1.1,0.2-2.8,0.3-5.2,0.4c-2.3,0.1-4.1,0.2-5.2,0.4
			c-6.8,0.9-10.8,3.3-12.2,7c-0.8,2.3-0.8,6.8,0.1,13.5l1.1,8.1c0.4,2.8,1.1,6.9,2.1,12.5s1.7,9.8,2.1,12.5c0.2,1.3-0.3,2.1-1.6,2.3
			c-1.7,0.2-4.2,0.6-7.6,1c-3.4,0.4-5.9,0.7-7.6,1c-1.2,0.2-1.9-0.4-2.1-1.6c-0.6-4-1.3-10-2.3-18.1c-1-8.1-1.7-14.1-2.3-18.1
			c-1.7-12.2-4.3-21.8-7.8-28.9c-0.2-0.4-0.3-0.7-0.3-0.9c-0.1-0.6,0.2-1.1,0.9-1.4c2-0.5,4.7-1.2,8.2-2c5.7-1.8,8.3-2.6,7.8-2.6
			c0.9-0.1,1.6,1.3,2.3,4.1c0.7,2.9,1.4,4.3,2,4.2c0.1,0,0.2-0.1,0.4-0.2c2-1.6,4-3.2,6.1-4.8c2.2-1.7,4.6-3,7-4
			c2-0.9,4.6-1.5,7.9-2C321.9,1118.7,324,1118.9,324.2,1119.9z"/>
		<path d="M415,1111.8c0,0.2,0,0.7-0.1,1.4c-0.8,11.6-0.7,21.5,0.2,29.7c0.1,0.5,2,11.5,5.8,33.1l0.2,1c0.2,1.4-0.4,2.2-1.9,2.4
			c-1.5,0.2-3.7,0.6-6.6,1.2c-2.9,0.7-5.1,1.1-6.6,1.2c-1,0.1-2-1.5-2.9-4.9c-0.9-3.4-1.6-5.1-2.1-5c-0.3,0-1.7,1.2-4,3.4
			c-2.9,2.7-5.6,4.9-8.2,6.4c-4,2.5-8.2,3.9-12.4,4.4c-10.4,1.2-19.7-1.6-27.7-8.5c-7.6-6.5-12-14.7-13.1-24.4
			c-1.3-11,1.1-20.4,7.1-28.4c6.3-8.3,15.3-13.1,26.9-14.4c8.2-0.9,15.7,0.9,22.4,5.4c1,0.9,2.6,2.2,4.8,3.8
			c0.2,0.1,0.3,0.2,0.5,0.2c0.3,0,0.6-1.6,0.8-4.8c0.2-3.2,0.8-4.8,1.7-4.9c1.5-0.2,4.2-0.1,8.3,0.2
			C412.7,1110.6,415,1111.1,415,1111.8z M398,1145.2c-0.7-6.1-3.3-11.1-7.7-15c-4.7-4.2-10.2-6-16.7-5.2c-6.5,0.7-11.6,3.7-15.3,8.8
			c-3.6,4.9-5.1,10.4-4.4,16.4c0.7,6,3.3,10.9,8,14.9c4.8,4.1,10.5,5.8,16.9,5.1c6.3-0.7,11.3-3.7,15-8.9
			C397.3,1156.4,398.7,1151.1,398,1145.2z"/>
		<path d="M506.4,1067.2c0.5,6.4,1,16,1.5,28.8c0.5,12.8,1,22.4,1.5,28.8c1.7,19.6,3.4,34.4,5.1,44.4l0.2,1c0.1,0.5-0.6,0.9-2.1,1.2
			c-1,0.2-2.5,0.3-4.4,0.4c-2.3,0-3.3,0.1-3.2,0c-0.8,0.1-2,0.2-3.5,0.5c-1.6,0.3-2.7,0.5-3.5,0.5c-0.8,0.1-1.3-1.6-1.8-5.1
			c-0.4-3.4-0.8-5.2-1-5.2c-0.3,0.2-0.7,0.5-1.1,1.1c-6.8,8-14.9,12.4-24.5,13.2c-10.9,0.9-20.2-2.1-27.8-9.2
			c-7.2-6.6-11.3-15-12.1-25.2c-0.9-10.6,1.7-19.7,7.8-27.5c6.4-8.1,15.2-12.7,26.5-13.6c6.8-0.6,12.9,0.8,18.3,4
			c2.5,1.6,4.9,3.3,7.3,5c0.4-0.2,0.6-0.6,0.6-1.1l-2-24.1c-0.1-1.6-0.4-4.1-0.9-7.4c-0.4-3.3-0.7-5.8-0.9-7.5
			c-0.1-1.2,0.3-1.8,1.1-1.9c2-0.2,4.9-0.6,8.9-1.2c3.9-0.7,6.8-1.1,8.8-1.2C505.8,1065.6,506.3,1066.1,506.4,1067.2z M491.9,1136.6
			c-0.5-6-2.9-11-7.3-15.2c-4.7-4.5-10.2-6.4-16.5-5.9c-6.6,0.6-11.9,3.4-15.8,8.5c-3.7,4.8-5.3,10.3-4.8,16.6c0.5,6,3.1,11,7.7,15
			c4.8,4.3,10.3,6.2,16.8,5.6c6.5-0.5,11.6-3.4,15.4-8.4C490.9,1148.1,492.4,1142.7,491.9,1136.6z"/>
		<path d="M546.8,1079.6c0.4,6.1-3.1,9.4-10.5,9.9c-7.5,0.5-11.5-2.3-11.8-8.5c-0.2-2.7,0.8-5.1,3.1-7c2.1-1.8,4.6-2.8,7.6-3
			c3-0.2,5.7,0.5,8,2.1C545.4,1074.7,546.6,1076.9,546.8,1079.6z M547.5,1099.9c0.2,3.8,0.3,9.6,0.3,17.4c0,7.8,0.1,13.6,0.3,17.4
			c0.2,3.6,0.7,9,1.3,16.3c0.6,7.2,1,12.6,1.3,16.2c0.1,1-0.4,1.6-1.4,1.7l-15.8,1c-1.1,0.1-1.8-0.9-1.9-2.9
			c-0.2-3.4-0.4-8.6-0.7-15.5c-0.2-6.9-0.5-12.1-0.7-15.6c-0.2-3.9-0.9-9.7-2-17.4c-1.1-7.7-1.8-13.5-2-17.4
			c-0.1-0.8,0.5-1.3,1.6-1.4c1-0.1,2.5,0,4.5,0.1c2,0.1,3.6,0.1,4.6,0.1c1-0.1,2.5-0.3,4.6-0.7c2-0.4,3.5-0.6,4.6-0.7
			C547,1098.5,547.5,1098.9,547.5,1099.9z"/>
		<path d="M641,1163.1c0,1.1-0.5,1.7-1.6,1.7c-1.8,0.1-4.4,0.2-8,0.3c-3.5,0.1-6.2,0.2-8,0.3c-1,0-1.5-0.7-1.6-2.1
			c-0.1-2.4-0.2-6.1-0.2-11.1c0-5-0.1-8.7-0.2-11.2c-0.1-2-0.2-5-0.5-8.9c-0.2-4-0.4-6.9-0.5-8.9c-0.2-5.7-1.3-9.6-3.2-11.9
			c-2.3-2.7-6.3-3.9-12.2-3.7c-2.7,0.1-6.4,1.7-11.1,4.7c-5,3.1-7.4,5.9-7.3,8.2l1.9,44.8c0.1,1.2-0.4,1.9-1.5,1.9
			c-1.7,0.1-4.3,0.2-7.8,0.3c-3.5,0.1-6.1,0.2-7.8,0.3c-1.1,0-1.7-0.5-1.8-1.6c-0.2-3.9-0.3-9.8-0.5-17.7
			c-0.2-7.9-0.4-13.8-0.5-17.8c-0.4-10.6-2.1-20.3-4.9-29.2c-0.2-0.4-0.3-0.8-0.3-1c0-0.5,0.3-0.9,1-1.1c0.4-0.1,3.5-0.7,9.2-1.8
			c5.8-1.1,8.8-1.7,9.1-1.7c0.3,0,0.6,0.4,0.7,1.2c0.4,3.1,1.2,6.2,2.3,9.2c2.7-2.2,6.3-4.8,10.8-8.1c5.5-3.4,11-5.2,16.3-5.5
			c10.2-0.4,17.2,2,21.2,7.3c2.9,3.9,4.6,10.2,4.9,19.1c0.1,1.5,0.1,3.9,0.2,7.1c0.1,3.2,0.1,5.6,0.2,7.2c0.1,3.3,0.4,8.3,0.8,14.9
			C640.6,1154.8,640.9,1159.8,641,1163.1z"/>
		<path d="M728.7,1093.6c0.1,6,0.1,14.9,0.2,26.9c0,12,0.1,20.9,0.2,26.9c0.1,11.8-2.5,20.6-7.9,26.3c-5.7,6-14.9,9.1-27.6,9.3
			c-12.3,0.2-22.2-1.9-29.9-6c-1.2-0.7-1.8-1.3-1.8-1.8c0,0.5,0.8-3.1,2.3-11.1c0.2-0.8,0.5-1.3,1.1-1.3c0.3,0,0.6,0.1,1.1,0.4
			c8.2,4.2,16.3,6.2,24.5,6.1c5.4-0.1,9.8-1.2,13.3-3.5c4-2.5,6-6.2,5.9-10.9c0-1-0.2-3.4-0.4-7c-5.9,6.8-13.5,10.3-22.8,10.4
			c-10,0.1-18.3-3.1-24.8-9.6c-6.2-6.3-9.4-14.1-9.5-23.4c-0.1-9.5,2.8-17.5,8.6-24.2c6.2-7.1,14.4-10.8,24.5-10.9
			c8.9-0.1,16.1,3,21.4,9.2c0.9,1,1.5,1.5,1.9,1.5c0.4,0,0.6-0.5,0.6-1.4c0-0.6-0.1-1.7-0.2-3.1c-0.1-1.4-0.2-2.5-0.2-3.2
			c0-3,0.3-4.5,0.9-4.5c0.5,0,3.5,0.4,8.8,1.3c5.3,0.9,8.2,1.4,8.7,1.6C728.3,1092,728.7,1092.6,728.7,1093.6z M709.6,1124.7
			c-0.1-5.6-1.8-10.3-5.1-14.1c-3.7-4.2-8.5-6.2-14.4-6.2c-5.8,0.1-10.6,2.3-14.1,6.6c-3.3,3.9-4.8,8.6-4.8,14.2
			c0.1,5.4,1.8,10.1,5.2,14c3.7,4.2,8.4,6.3,14.2,6.2c5.7-0.1,10.4-2.3,14-6.6C708,1134.8,709.7,1130.1,709.6,1124.7z"/>
		<path d="M811.3,1164.4l-59.7-1l1.5-91.3l19.7,0.3l-1.2,73.2l40,0.7L811.3,1164.4z"/>
		<path d="M899.1,1127.9c-0.2,3.7-2,6.1-5.5,7.2c-2.4,0.7-19.2,1.4-50.4,2.2c0.5,4.4,3,8.3,7.4,11.5c4.2,3.1,8.8,4.8,13.7,5
			c8.5,0.4,16.5-1.8,23.9-6.6c0.9-0.6,1.8-1.2,2.7-1.8c0.4,0,0.7,0.1,0.8,0.2c0.1,0.1,1.1,1.9,2.8,5.3c1.7,3.4,2.6,5.3,2.6,5.5
			c0,0.3-0.5,0.9-1.4,1.7c-8.3,7.4-18.7,10.8-31.1,10.3c-12.5-0.6-22.4-4.5-29.5-11.7c-7.2-7.2-10.5-16.6-10-28.1
			c0.5-10.2,4.4-19,11.9-26.3c7.9-7.6,17.3-11.1,28.2-10.6c10.2,0.5,18.5,4.3,25,11.4C896.5,1110.1,899.5,1118.4,899.1,1127.9z
			 M880,1122.5c0.2-4.1-1.4-7.9-4.8-11.2c-3.4-3.3-7.3-5.1-11.7-5.3c-5-0.2-9.5,1.4-13.5,4.9c-4,3.5-6.1,7.5-6.4,12.1
			c0,1,0.9,1.6,2.8,1.7c8,0.4,17.6,0,28.8-1C878.4,1123.6,879.9,1123.1,880,1122.5z"/>
		<path d="M983.7,1124.7c-0.5,7-1.1,11.1-1.6,12.2c-1,2.2-5.8,8.4-14.6,18.6c-9,10.5-14.3,15.9-15.9,16.4c-0.8,0.2-3.1,0.2-6.8-0.1
			c-3.6-0.3-6-0.6-7.1-1c-1.5-0.6-6-6.5-13.6-17.9c-7.4-11.1-11.5-17.8-12.3-20.1c-1.1-3.2-1.4-8.1-0.9-14.7c0.2-2,0.4-5.1,0.8-9.1
			c0.4-4.1,0.7-7.1,0.8-9.1c0.1-1.1,0.7-1.6,1.9-1.5c1.8,0.1,4.4,0.4,8,0.8c3.5,0.4,6.2,0.7,8,0.8c1,0.1,1.4,0.6,1.3,1.6
			c-0.1,1.6-0.4,3.9-0.8,7c-0.4,3.1-0.7,5.4-0.8,7c-0.3,4.6-0.4,8.8-0.1,12.6c0.1,1.9,2.5,6.7,7.2,14.5c4.7,7.7,7.6,11.6,8.9,11.7
			c1.2,0.1,4.4-3.3,9.6-10.1c5.2-6.7,8-11,8.4-12.8c0.6-2.4,1.1-6.7,1.6-12.8c0.1-1.6,0.1-4.1,0-7.4c-0.1-3.3-0.1-5.8,0-7.4
			c0.1-0.7,0.5-1.1,1.3-1c1.8,0.1,4.4,0.2,7.9,0.3c3.5,0.1,6.1,0.2,7.8,0.3C984.4,1103.6,984.7,1110.6,983.7,1124.7z"/>
		<path d="M1068.1,1142.6c-0.4,3.7-2.4,5.9-5.9,6.8c-2.4,0.6-19.2,0.3-50.4-0.8c0.2,4.4,2.5,8.4,6.7,12c4,3.4,8.5,5.3,13.4,5.8
			c8.5,0.9,16.6-0.8,24.2-5.1c0.9-0.6,1.9-1.1,2.8-1.7c0.4,0,0.7,0.1,0.8,0.2c0.1,0.1,1,1.9,2.5,5.5c1.5,3.5,2.3,5.4,2.3,5.7
			c0,0.3-0.5,0.8-1.5,1.6c-8.7,6.9-19.3,9.7-31.6,8.4c-12.5-1.3-22.1-5.8-28.8-13.4c-6.7-7.6-9.5-17.2-8.3-28.6
			c1.1-10.2,5.5-18.7,13.4-25.6c8.3-7.1,17.9-10.1,28.8-8.9c10.1,1,18.2,5.3,24.3,12.9C1066.6,1124.7,1069,1133.1,1068.1,1142.6z
			 M1049.3,1136.1c0.4-4.1-1-7.9-4.2-11.5c-3.2-3.5-7-5.5-11.4-6c-5-0.5-9.5,0.9-13.8,4.1c-4.2,3.3-6.6,7.2-7.1,11.7
			c-0.1,1,0.8,1.7,2.7,1.9c8,0.8,17.6,1.1,28.8,0.7C1047.6,1137,1049.3,1136.7,1049.3,1136.1z"/>
		<path d="M1102,1103.5l-0.2,0.8c-2.8,14.7-4.8,27.3-6.2,37.9c-0.6,4.7-1.4,11.8-2.4,21.3c-1,9.5-1.8,16.5-2.4,21.2
			c-0.1,0.9-0.5,1.3-1.2,1.2l-12.4-1.5c-0.8-0.1-1.1-0.6-1-1.5c0.6-4.7,1.5-11.7,2.8-21.2c1.3-9.4,2.2-16.5,2.8-21.2
			c0.5-4.3,1.1-10.8,1.7-19.4c0.6-8.7,1.2-15.1,1.7-19.4c0.1-0.8,0.6-1.1,1.5-1c0.8,0.1,1.9,0.3,3.5,0.6c1.5,0.3,2.7,0.5,3.5,0.6
			c0.8,0.1,2,0.2,3.6,0.3c1.6,0.1,2.8,0.2,3.6,0.3C1101.8,1102.5,1102.2,1102.9,1102,1103.5z"/>
		<path d="M1144.5,1117l-2.7,18.8l32.9,4.8l-2.7,18.7l-32.9-4.8l-5.4,37.3l-20.1-2.9l13.6-93.3l65.2,9.5l-2.7,18.5L1144.5,1117z"/>
		<path d="M1255.6,1210.4c-0.1,0.7-0.8,1.1-1.9,1.1c-0.8,0-2-0.2-3.5-0.5c-2.2-0.5-3.1-0.7-2.9-0.7c-4.2-0.7-6.7-1.6-7.4-2.7
			c-2.5-5-6.3-12.4-11.4-22.2c-1-1.8-1.6-2.7-1.7-2.7c-0.5-0.1-4.1,3.1-10.9,9.7c-6.9,6.7-11,10-12.2,10c-1.2,0-5-0.6-11.4-1.7
			c-1.3-0.2-1.8-0.8-1.7-1.7l1.4-8c0.1-0.5,4.4-4.1,12.9-10.8c8.5-6.6,12.8-10.4,12.9-11.1c0.1-0.7-2.7-5.6-8.4-14.7
			c-5.7-9.1-8.5-14-8.4-14.8l1.4-7.9c0.2-1,0.9-1.4,2.2-1.1c1.3,0.2,3.3,0.7,5.9,1.3c2.6,0.7,4.6,1.1,5.9,1.3
			c0.7,0.1,1.4,0.6,1.8,1.4c2.4,5,6,12.4,10.9,22.2c1,1.8,1.5,2.8,1.7,2.8c0.2,0,0.9-0.5,2.1-1.6c3.8-3.3,10.1-9.3,18.9-17.8
			c0.7-0.6,1.3-0.8,2-0.7c1.3,0.2,3.3,0.5,5.9,0.9c2.6,0.4,4.6,0.7,5.9,0.9c1.3,0.2,1.9,0.8,1.7,1.8l-1.4,7.7
			c-0.2,0.9-4.5,4.6-13,11.2c-8.5,6.6-12.8,10.3-12.9,11.1c-0.1,0.5,2.7,5.3,8.5,14.4c5.7,9.1,8.5,14.2,8.4,15L1255.6,1210.4z"/>
	</g>
</g>
</svg>
