<?xml version="1.0" encoding="utf-8"?>
<!-- Generator: Adobe Illustrator 18.1.1, SVG Export Plug-In . SVG Version: 6.00 Build 0)  -->
<!DOCTYPE svg PUBLIC "-//W3C//DTD SVG 1.1//EN" "http://www.w3.org/Graphics/SVG/1.1/DTD/svg11.dtd">
<svg version="1.1" id="Capa_1" xmlns="http://www.w3.org/2000/svg" xmlns:xlink="http://www.w3.org/1999/xlink" x="0px" y="0px"
	 viewBox="0 30.5 200 139" enable-background="new 0 30.5 200 139" xml:space="preserve">
<g>
	<path fill="#FFFFFF" d="M77.8,156.5c-5.9,0-11.8-0.6-17.6-1.6l-2.1-0.4L31,169.5v-25.6l-2.7-1.8C10.3,130,0,112.3,0,93.5
		c0-34.7,34.9-63,77.8-63c6.9,0,13.6,0.7,20,2.1C77.4,43.7,63.8,63,63.8,84.8c0,29.6,24.8,54.4,57.9,60.6
		C109.2,152.4,94.1,156.5,77.8,156.5z"/>
	<path fill="#FFFFFF" d="M177.5,123.4l-2.7,1.8v19.5l-20.6-11.5l-0.1,0l-2.1,0.4c-4.6,0.9-9.4,1.3-14.1,1.3c-0.5,0-1,0-1.5,0
		c-33.5-0.6-60.6-22.8-60.6-50c0-21.1,16.3-39.2,39.4-46.5c5.9-1.9,12.2-3,18.7-3.4c1.3-0.1,2.6-0.1,4-0.1c34.2,0,62.1,22.4,62.1,50
		C200,99.7,191.8,113.8,177.5,123.4z"/>
</g>
</svg>
