<?xml version="1.0" encoding="utf-8"?>
<!-- Generator: Adobe Illustrator 18.1.1, SVG Export Plug-In . SVG Version: 6.00 Build 0)  -->
<!DOCTYPE svg PUBLIC "-//W3C//DTD SVG 1.1//EN" "http://www.w3.org/Graphics/SVG/1.1/DTD/svg11.dtd">
<svg version="1.1" id="Layer_1" xmlns="http://www.w3.org/2000/svg" xmlns:xlink="http://www.w3.org/1999/xlink" x="0px" y="0px"
	 viewBox="-87 94 24 14" enable-background="new -87 94 24 14" xml:space="preserve">
<g>
	<g>
		<g>
			<g>
				<rect x="-87" y="89" opacity="0" fill="#FFFFFF" width="24" height="24"/>
			</g>
			<path fill="#FFFFFF" d="M-66,96.2c-0.6-0.3-1.3-0.2-1.8,0.3l-2.2,2V97c0-1.7-1.3-3-3-3h-9c-1.7,0-3,1.3-3,3v8c0,1.7,1.3,3,3,3h9
				c1.7,0,3-1.3,3-3v-1.4l2.2,2c0.3,0.3,0.7,0.4,1.2,0.4c0.2,0,0.5-0.1,0.7-0.2c0.6-0.2,1-0.8,1-1.5v-6.7C-65,97-65.4,96.4-66,96.2z
				"/>
		</g>
	</g>
</g>
</svg>
